<svg xmlns="http://www.w3.org/2000/svg" viewBox="0 0 553.75 139.54"><defs><style>.cls-1,.cls-2{fill:#000100;}.cls-2,.cls-3{fill-rule:evenodd;}.cls-3{fill:#fff;}</style></defs><title>Recurso 1</title><g id="Capa_2" data-name="Capa 2"><g id="Capa_1-2" data-name="Capa 1"><path class="cls-1" d="M95.13,6.84,81.06,48.08a25.67,25.67,0,0,1-13.6,39.85L65.6,93.38c-2.43,7.66-5,19.43-5,19.43h-.37s-2.62-11.77-5-19.43L53.3,87.94a25.67,25.67,0,0,1-13.49-40L26,6.84H0l47.84,132.7h25L120.73,6.84Z"/><circle class="cls-1" cx="60.37" cy="63.26" r="17.06"/><path class="cls-2" d="M317.78,56.25l-17-22.77a6.82,6.82,0,0,1,8.4-10.25l.1-.13,20.39,15.79-5-23.16a6.83,6.83,0,0,1,12.72-4.62l12.41,23.55L356.1,9.51a6.83,6.83,0,0,1,13.46,1.74l.72,31v.37a33.21,33.21,0,0,1,13.09,11.18A6.84,6.84,0,0,1,389,49.83l27.58-2.2a7,7,0,0,1,4.05.94,6.81,6.81,0,0,1,4.09-1.78l5.58-.45v.18A6.81,6.81,0,0,1,433.75,48l11.61,9.65-.43-5.45a6.85,6.85,0,0,1,6.28-7.36l11.55-.93a7,7,0,0,1,4.11,1,6.89,6.89,0,0,1,3.9-1.63l21.53-1.71a6.84,6.84,0,0,1,7.36,6.27l.79,9.85a6.85,6.85,0,0,1-4.65,7l.89,11.1a6.84,6.84,0,0,1,3.1,1.1L512,43.81A6.85,6.85,0,0,1,518,39l6.33-.5v.17a6.92,6.92,0,0,1,5,3.42l23.19,41.16a6.87,6.87,0,0,1,1.06,3.16l.13,1.64a6.85,6.85,0,0,1-6.28,7.37l-11,.88a6.87,6.87,0,0,1-6.5-3.45L529,91.26l-8.73.7-.55,1.47a6.85,6.85,0,0,1-5.94,4.64l-11,.88A6.73,6.73,0,0,1,500,98.6a6.93,6.93,0,0,1-2.66.78L475,101.17a6.86,6.86,0,0,1-3.88-.85,6.76,6.76,0,0,1-3.7,1.45l-5.5.44,0-.17a6.84,6.84,0,0,1-3.42-1.51L446.89,91l.44,5.56a6.85,6.85,0,0,1-6.28,7.36l-11.67.94a7,7,0,0,1-3.88-.85,6.9,6.9,0,0,1-3.7,1.45l-28.15,2.25a6.85,6.85,0,0,1-6.88-4.24,42.15,42.15,0,0,1-49.33,12.23,36.63,36.63,0,0,1-11.87-8.79,6.84,6.84,0,0,1-6.3,6.73l-5.52.44v-.17a6.89,6.89,0,0,1-3.41-1.51l-11.55-9.58.45,5.56a6.85,6.85,0,0,1-6.28,7.36l-11.68.94a6.91,6.91,0,0,1-3.55-.68,6.81,6.81,0,0,1-3.4,1.23L251.91,119a6.86,6.86,0,0,1-7.37-6.28l-.79-9.91a6.85,6.85,0,0,1,5.08-7.16L248,84.53a6.86,6.86,0,0,1-5.71-6.21l-.78-9.85a6.84,6.84,0,0,1,6.27-7.36l21.53-1.72a6.87,6.87,0,0,1,3.63.71,6.81,6.81,0,0,1,3.75-1.49l5.57-.45,0,.18a6.79,6.79,0,0,1,3.42,1.51l11.61,9.65-.43-5.45a6.84,6.84,0,0,1,6.27-7.36l11.55-.92A6.86,6.86,0,0,1,317.78,56.25Z"/><path class="cls-2" d="M313.43,51.91l-17-22.78a6.83,6.83,0,0,1,8.4-10.25l.11-.13,20.38,15.79-5-23.16A6.83,6.83,0,0,1,333,6.77L345.4,30.32l6.35-25.16A6.83,6.83,0,0,1,365.21,6.9l.72,31v.37A33.39,33.39,0,0,1,379,49.41a6.86,6.86,0,0,1,5.65-3.93l27.59-2.2a6.89,6.89,0,0,1,4,.95,6.79,6.79,0,0,1,4.09-1.79L426,42v.17a6.84,6.84,0,0,1,3.42,1.51L441,53.33l-.44-5.44a6.85,6.85,0,0,1,6.28-7.37l11.55-.92a6.87,6.87,0,0,1,4.11,1A6.81,6.81,0,0,1,466.43,39L488,37.24a6.86,6.86,0,0,1,7.37,6.28l.78,9.84a6.87,6.87,0,0,1-4.64,7l.88,11.09a6.84,6.84,0,0,1,3.1,1.1l12.19-33.13a6.85,6.85,0,0,1,6-4.84l6.33-.51,0,.18a6.85,6.85,0,0,1,5,3.41l23.19,41.17A6.83,6.83,0,0,1,549.25,82l.14,1.64A6.86,6.86,0,0,1,543.11,91l-11.05.88a6.86,6.86,0,0,1-6.5-3.44l-.88-1.56-8.72.7-.55,1.48a6.85,6.85,0,0,1-5.95,4.63l-11,.88a6.73,6.73,0,0,1-2.75-.34A6.86,6.86,0,0,1,493,95L470.6,96.82a6.89,6.89,0,0,1-3.88-.84A6.83,6.83,0,0,1,463,97.43l-5.51.44v-.18a6.75,6.75,0,0,1-3.42-1.51L442.54,86.6l.44,5.56a6.85,6.85,0,0,1-6.27,7.37l-11.68.93a6.78,6.78,0,0,1-3.88-.85,6.79,6.79,0,0,1-3.7,1.45l-28.15,2.25a6.86,6.86,0,0,1-6.88-4.24A40.29,40.29,0,0,1,364,112.21a40.72,40.72,0,0,1-30.86-.9,36.71,36.71,0,0,1-11.88-8.79,6.85,6.85,0,0,1-6.3,6.73l-5.52.44v-.18A6.84,6.84,0,0,1,306,108l-11.54-9.58.44,5.56a6.86,6.86,0,0,1-6.28,7.37l-11.67.93a6.83,6.83,0,0,1-3.56-.68,6.68,6.68,0,0,1-3.4,1.23l-22.41,1.79a6.84,6.84,0,0,1-7.36-6.27l-.8-9.91a6.87,6.87,0,0,1,5.09-7.17l-.89-11.09A6.84,6.84,0,0,1,237.9,74l-.79-9.84a6.86,6.86,0,0,1,6.28-7.37L264.91,55a6.78,6.78,0,0,1,3.63.72,6.85,6.85,0,0,1,3.75-1.5l5.57-.44,0,.17a6.84,6.84,0,0,1,3.42,1.51l11.61,9.66-.43-5.45a6.86,6.86,0,0,1,6.28-7.37l11.55-.92A6.69,6.69,0,0,1,313.43,51.91Z"/><path class="cls-3" d="M319.39,86.2c7.6,20.59,26.87,25.19,42.23,19.59,11.13-4.06,20.84-13.07,20.56-27.24-.07-6.62-2.18-12.4-4.73-18.31L348.9,70.65,353.78,84l12.85-4.68c-.65,6.78-4,9.87-10.23,12.13-9.15,3.34-17.4-1.08-21-11.09-3.37-9.23-.88-18.74,8.87-22.29,6.13-2.23,10.85-1.61,15.24,2.65l15.18-5.54c-8.41-13.94-23.38-15.61-35.58-11.26-15.35,5.6-27.1,21.62-19.67,42.26ZM263,96.55l-1.95-24.43,5.17-.41-.78-9.85-21.53,1.72.79,9.85L249.9,73l1.94,24.42-5.61.45.79,9.91L269.43,106l-.8-9.91-5.61.45Zm268.5-11.46,11-.88-.13-1.64L519.05,41.05l-4.86.39-16.45,44.7.13,1.64,11.05-.88,2.14-5.76,17.43-1.39,3,5.34Zm-7.47-14.71L514,71.19l4-12,6,11.21Zm-38,8.37-1.95-24.43,5.17-.41-.78-9.85L467,45.78l.79,9.85,5.17-.42,1.95,24.43-5.61.45.79,9.91,22.4-1.79-.79-9.91-5.61.45ZM458.44,90.93l4-.33L459,46.42l-11.55.92L449.13,69l-24.08-20-4.11.32,3.55,44.38,11.67-.94L434.43,71l24,19.94ZM412.81,50.1l-27.58,2.21,3.53,44.18,28.15-2.25c-.27-3.34-.54-6.75-.81-10l-16.91,1.35c-.21-2.66-.41-5.18-.62-7.77l15-1.2c-.27-3.34-.53-6.69-.8-10l-15,1.2-.5-6.25,16.35-1.31c-.27-3.41-.55-6.81-.81-10.1ZM310.34,102.75l-24-19.94,1.73,21.71-11.68.94-3.54-44.37,4.1-.33,24.09,20L299.3,59.16l11.55-.92,3.53,44.18-4,.33ZM359.1,38l-8.36-.94,7.64-30.26L359.1,38Zm-32.53,6.12-6,5.9-18.68-25,24.68,19.1Zm14.92-6.61-7.9,2.89L326.94,9.94Z"/><polygon class="cls-2" points="204.56 67.42 187.19 67.42 187.19 50.05 171.25 50.05 171.25 67.42 153.88 67.42 153.88 83.36 171.25 83.36 171.25 100.73 187.19 100.73 187.19 83.36 204.56 83.36 204.56 67.42"/></g></g></svg>